<?xml version="1.0" encoding="UTF-8" standalone="no"?>
<svg width="100px" height="100px" viewBox="0 0 100 100" version="1.1" xmlns="http://www.w3.org/2000/svg" xmlns:xlink="http://www.w3.org/1999/xlink">
    <!-- Generator: Sketch 3.8.1 (29687) - http://www.bohemiancoding.com/sketch -->
    <title>Slice 1</title>
    <desc>Created with Sketch.</desc>
    <defs></defs>
    <g id="Page-1" stroke="none" stroke-width="1" fill="none" fill-rule="evenodd">
        <path d="M94.477376,0 L5.51933083,0 C2.47316077,0 0,2.46822104 0,5.51933083 L0,94.477376 C0,97.5284858 2.47316077,100 5.51933083,100 L53.4117105,100 L53.4117105,61.2741224 L40.3806889,61.2741224 L40.3806889,46.1799381 L53.4117105,46.1799381 L53.4117105,35.049068 C53.4117105,22.1349536 61.2971745,15.099124 72.8199302,15.099124 C78.3442008,15.099124 83.0814068,15.5124152 84.4628861,15.6918922 L84.4628861,29.1905421 L76.4703945,29.1938352 C70.2051637,29.1938352 68.9965751,32.1724956 68.9965751,36.5408681 L68.9965751,46.1749984 L83.9442139,46.1749984 L81.9897254,61.2675361 L68.9949285,61.2675361 L68.9949285,99.9950603 L94.4757294,99.9950603 C97.5251926,99.9950603 100,97.5202529 100,94.477376 L100,5.51603767 C99.9983534,2.46822104 97.5268392,0 94.477376,0 L94.477376,0 Z" id="Shape" fill="#FFFFFF"></path>
    </g>
</svg>