<svg  version="1.1" xmlns="http://www.w3.org/2000/svg" xmlns:xlink="http://www.w3.org/1999/xlink">
    <!-- Generator: Sketch 3.8.1 (29687) - http://www.bohemiancoding.com/sketch -->
    <desc>Created with Sketch.</desc>
    <defs></defs>
    <path d="M205.79095,61 L170.207732,61 C168.989264,61 168,61.9872884 168,63.2077323 L168,98.7909504 C168,100.011394 168.989264,101 170.207732,101 L189.364684,101 L189.364684,85.5096489 L184.152276,85.5096489 L184.152276,79.4719752 L189.364684,79.4719752 L189.364684,75.0196272 C189.364684,69.8539814 192.51887,67.0396496 197.127972,67.0396496 C199.33768,67.0396496 201.232563,67.2049661 201.785154,67.2767569 L201.785154,72.6762168 L198.588158,72.6775341 C196.082065,72.6775341 195.59863,73.8689982 195.59863,75.6163472 L195.59863,79.4699993 L201.577686,79.4699993 L200.79589,85.5070144 L195.597971,85.5070144 L195.597971,100.998024 L205.790292,100.998024 C207.010077,100.998024 208,100.008101 208,98.7909504 L208,63.2064151 C207.999341,61.9872884 207.010736,61 205.79095,61 L205.79095,61 Z" id="Shape" stroke="none" fill="#FFFFFF" fill-rule="evenodd"></path>
</svg>
